<svg width="15" height="15" viewBox="0 0 15 15" fill="none" xmlns="http://www.w3.org/2000/svg">
<path fillRule="evenodd" clip-rule="evenodd" d="M4.5 4C4.22386 4 4 4.22386 4 4.5C4 4.77614 4.22386 5 4.5 5H13.5C13.7761 5 14 4.77614 14 4.5C14 4.22386 13.7761 4 13.5 4H4.5ZM4 7.5C4 7.22386 4.22386 7 4.5 7H13.5C13.7761 7 14 7.22386 14 7.5C14 7.77614 13.7761 8 13.5 8H4.5C4.22386 8 4 7.77614 4 7.5ZM4 10.5C4 10.2239 4.22386 10 4.5 10H13.5C13.7761 10 14 10.2239 14 10.5C14 10.7761 13.7761 11 13.5 11H4.5C4.22386 11 4 10.7761 4 10.5Z" fill="black"/>
<path d="M3.56303 3.90909V5H3.33239V4.12802H3.32599L3.07617 4.28462V4.08008L3.34624 3.90909H3.56303Z" fill="black"/>
<path d="M3.08842 8V7.83381L3.47674 7.47425C3.50977 7.44229 3.53746 7.41353 3.55984 7.38796C3.58256 7.36239 3.59979 7.33736 3.61151 7.31286C3.62322 7.288 3.62908 7.26119 3.62908 7.23242C3.62908 7.20046 3.6218 7.17294 3.60724 7.14986C3.59268 7.12642 3.5728 7.10849 3.54759 7.09606C3.52237 7.08327 3.49379 7.07688 3.46183 7.07688C3.42844 7.07688 3.39933 7.08363 3.37447 7.09712C3.34961 7.11062 3.33043 7.12997 3.31694 7.15518C3.30344 7.1804 3.2967 7.2104 3.2967 7.24521H3.07777C3.07777 7.17383 3.09393 7.11186 3.12624 7.0593C3.15856 7.00675 3.20384 6.96609 3.26207 6.93732C3.32031 6.90856 3.38743 6.89418 3.46342 6.89418C3.54155 6.89418 3.60955 6.90803 3.66744 6.93572C3.72567 6.96307 3.77095 7.00107 3.80327 7.04972C3.83558 7.09837 3.85174 7.15412 3.85174 7.21697C3.85174 7.25817 3.84357 7.29883 3.82724 7.33896C3.81126 7.37908 3.78267 7.42365 3.74148 7.47266C3.70028 7.52131 3.64222 7.57972 3.56729 7.6479L3.40803 7.80398V7.81143H3.86612V8H3.08842Z" fill="black"/>
<path d="M3.49165 11.0149C3.41211 11.0149 3.34126 11.0012 3.27912 10.9739C3.21733 10.9462 3.1685 10.9082 3.13263 10.8599C3.09712 10.8113 3.07884 10.7551 3.07777 10.6916H3.31001C3.31143 10.7182 3.32013 10.7417 3.33612 10.7619C3.35245 10.7818 3.37411 10.7972 3.4011 10.8082C3.42809 10.8192 3.45845 10.8248 3.49219 10.8248C3.52734 10.8248 3.55842 10.8185 3.5854 10.8061C3.61239 10.7937 3.63352 10.7765 3.64879 10.7544C3.66406 10.7324 3.6717 10.707 3.6717 10.6783C3.6717 10.6491 3.66353 10.6234 3.64719 10.601C3.63121 10.5783 3.60813 10.5605 3.57795 10.5478C3.54812 10.535 3.51261 10.5286 3.47141 10.5286H3.36967V10.3592H3.47141C3.50621 10.3592 3.53693 10.3532 3.56357 10.3411C3.59055 10.329 3.61151 10.3123 3.62642 10.291C3.64134 10.2694 3.64879 10.2441 3.64879 10.2154C3.64879 10.188 3.64222 10.1641 3.62908 10.1435C3.6163 10.1225 3.59819 10.1062 3.57475 10.0945C3.55167 10.0827 3.52468 10.0769 3.49379 10.0769C3.46254 10.0769 3.43395 10.0826 3.40803 10.0939C3.3821 10.1049 3.36133 10.1207 3.3457 10.1413C3.33008 10.1619 3.32173 10.1861 3.32067 10.2138H3.09961C3.10067 10.1509 3.11861 10.0955 3.15341 10.0476C3.18821 9.99964 3.23509 9.96218 3.29403 9.93519C3.35334 9.90785 3.42028 9.89418 3.49485 9.89418C3.57013 9.89418 3.63601 9.90785 3.69247 9.93519C3.74893 9.96254 3.79279 9.99947 3.82404 10.046C3.85565 10.0922 3.87127 10.144 3.87092 10.2015C3.87127 10.2626 3.85227 10.3136 3.81392 10.3544C3.77592 10.3952 3.72638 10.4212 3.66531 10.4322V10.4407C3.74556 10.451 3.80664 10.4789 3.84854 10.5243C3.8908 10.5694 3.91175 10.6259 3.9114 10.6937C3.91175 10.7559 3.89382 10.8111 3.8576 10.8594C3.82173 10.9077 3.77219 10.9457 3.70898 10.9734C3.64577 11.0011 3.57333 11.0149 3.49165 11.0149Z" fill="black"/>
</svg>
